<?xml version="1.0" standalone="no"?>
<!DOCTYPE svg PUBLIC "-//W3C//DTD SVG 20010904//EN"
 "http://www.w3.org/TR/2001/REC-SVG-20010904/DTD/svg10.dtd">
<svg version="1.0" xmlns="http://www.w3.org/2000/svg"
 width="800.000000pt" height="800.000000pt" viewBox="0 0 800.000000 800.000000"
 preserveAspectRatio="xMidYMid meet">
<metadata>
Created by potrace 1.14, written by Peter Selinger 2001-2017
</metadata>
<g transform="translate(0.000000,800.000000) scale(0.100000,-0.100000)"
fill="#000000" stroke="none">
<path d="M530 3995 l0 -2605 620 0 620 0 0 1085 0 1085 860 0 860 0 2 -1082 3
-1083 620 0 620 0 3 2603 2 2602 -622 -2 -623 -3 -3 -1032 -2 -1033 -860 0
-860 0 0 1035 0 1035 -620 0 -620 0 0 -2605z"/>
<path d="M6095 6436 c-445 -85 -808 -358 -995 -750 -96 -201 -125 -339 -125
-586 0 -198 12 -281 61 -429 128 -382 439 -704 814 -840 47 -17 104 -35 128
-41 l42 -11 0 -1189 0 -1190 300 0 300 0 0 1190 0 1189 43 11 c424 105 801
458 941 880 49 150 61 232 61 430 0 247 -30 389 -125 587 -174 361 -505 629
-901 729 -89 23 -130 27 -289 30 -127 2 -207 -1 -255 -10z m435 -517 c293 -75
532 -315 611 -614 16 -61 21 -110 21 -205 0 -151 -21 -241 -86 -375 -106 -217
-311 -382 -551 -446 -61 -16 -110 -21 -205 -21 -151 0 -241 21 -375 86 -164
81 -300 217 -381 381 -65 134 -86 224 -86 375 0 151 21 241 86 375 174 356
579 542 966 444z"/>
<path d="M6050 5796 c-113 -42 -228 -126 -281 -204 -26 -40 -30 -54 -26 -95 7
-83 85 -137 155 -108 16 7 52 39 82 73 37 42 71 69 114 89 34 16 66 29 72 29
21 0 65 58 70 92 17 99 -80 163 -186 124z"/>
</g>
</svg>
